%TF.GenerationSoftware,KiCad,Pcbnew,7.0.9*%
%TF.CreationDate,2023-12-13T07:18:37+01:00*%
%TF.ProjectId,MOSHield,4d4f5348-6965-46c6-942e-6b696361645f,rev?*%
%TF.SameCoordinates,Original*%
%TF.FileFunction,Copper,L1,Top*%
%TF.FilePolarity,Positive*%
%FSLAX46Y46*%
G04 Gerber Fmt 4.6, Leading zero omitted, Abs format (unit mm)*
G04 Created by KiCad (PCBNEW 7.0.9) date 2023-12-13 07:18:37*
%MOMM*%
%LPD*%
G01*
G04 APERTURE LIST*
%TA.AperFunction,ComponentPad*%
%ADD10R,1.700000X1.700000*%
%TD*%
%TA.AperFunction,ComponentPad*%
%ADD11O,1.700000X1.700000*%
%TD*%
%TA.AperFunction,ComponentPad*%
%ADD12C,1.600000*%
%TD*%
%TA.AperFunction,ComponentPad*%
%ADD13O,1.600000X1.600000*%
%TD*%
%TA.AperFunction,ComponentPad*%
%ADD14R,1.600000X1.600000*%
%TD*%
%TA.AperFunction,ComponentPad*%
%ADD15R,2.000000X1.905000*%
%TD*%
%TA.AperFunction,ComponentPad*%
%ADD16O,2.000000X1.905000*%
%TD*%
%TA.AperFunction,ComponentPad*%
%ADD17O,1.600000X1.200000*%
%TD*%
%TA.AperFunction,ComponentPad*%
%ADD18O,1.200000X1.200000*%
%TD*%
%TA.AperFunction,ViaPad*%
%ADD19C,2.400000*%
%TD*%
%TA.AperFunction,Conductor*%
%ADD20C,0.800000*%
%TD*%
G04 APERTURE END LIST*
D10*
%TO.P,J1,1,Pin_1*%
%TO.N,unconnected-(J1-Pin_1-Pad1)*%
X127940000Y-97460000D03*
D11*
%TO.P,J1,2,Pin_2*%
%TO.N,/IOREF*%
X130480000Y-97460000D03*
%TO.P,J1,3,Pin_3*%
%TO.N,/~{RESET}*%
X133020000Y-97460000D03*
%TO.P,J1,4,Pin_4*%
%TO.N,unconnected-(J1-Pin_4-Pad4)*%
X135560000Y-97460000D03*
%TO.P,J1,5,Pin_5*%
%TO.N,+5V*%
X138100000Y-97460000D03*
%TO.P,J1,6,Pin_6*%
%TO.N,GND*%
X140640000Y-97460000D03*
%TO.P,J1,7,Pin_7*%
X143180000Y-97460000D03*
%TO.P,J1,8,Pin_8*%
%TO.N,VCC*%
X145720000Y-97460000D03*
%TD*%
D10*
%TO.P,J3,1,Pin_1*%
%TO.N,VADC_GAS*%
X150800000Y-97460000D03*
D11*
%TO.P,J3,2,Pin_2*%
%TO.N,VADC_TEMP*%
X153340000Y-97460000D03*
%TO.P,J3,3,Pin_3*%
%TO.N,/A2*%
X155880000Y-97460000D03*
%TO.P,J3,4,Pin_4*%
%TO.N,/A3*%
X158420000Y-97460000D03*
%TO.P,J3,5,Pin_5*%
%TO.N,/SDA{slash}A4*%
X160960000Y-97460000D03*
%TO.P,J3,6,Pin_6*%
%TO.N,/SCL{slash}A5*%
X163500000Y-97460000D03*
%TD*%
D10*
%TO.P,J2,1,Pin_1*%
%TO.N,/SCL{slash}A5*%
X118796000Y-49200000D03*
D11*
%TO.P,J2,2,Pin_2*%
%TO.N,/SDA{slash}A4*%
X121336000Y-49200000D03*
%TO.P,J2,3,Pin_3*%
%TO.N,/AREF*%
X123876000Y-49200000D03*
%TO.P,J2,4,Pin_4*%
%TO.N,GND*%
X126416000Y-49200000D03*
%TO.P,J2,5,Pin_5*%
%TO.N,SCK*%
X128956000Y-49200000D03*
%TO.P,J2,6,Pin_6*%
%TO.N,/12*%
X131496000Y-49200000D03*
%TO.P,J2,7,Pin_7*%
%TO.N,SMOSI*%
X134036000Y-49200000D03*
%TO.P,J2,8,Pin_8*%
%TO.N,CS*%
X136576000Y-49200000D03*
%TO.P,J2,9,Pin_9*%
%TO.N,/\u002A9*%
X139116000Y-49200000D03*
%TO.P,J2,10,Pin_10*%
%TO.N,/8*%
X141656000Y-49200000D03*
%TD*%
D10*
%TO.P,J4,1,Pin_1*%
%TO.N,/7*%
X145720000Y-49200000D03*
D11*
%TO.P,J4,2,Pin_2*%
%TO.N,RST*%
X148260000Y-49200000D03*
%TO.P,J4,3,Pin_3*%
%TO.N,RX*%
X150800000Y-49200000D03*
%TO.P,J4,4,Pin_4*%
%TO.N,TX*%
X153340000Y-49200000D03*
%TO.P,J4,5,Pin_5*%
%TO.N,PWM*%
X155880000Y-49200000D03*
%TO.P,J4,6,Pin_6*%
%TO.N,/2*%
X158420000Y-49200000D03*
%TO.P,J4,7,Pin_7*%
%TO.N,/TX{slash}1*%
X160960000Y-49200000D03*
%TO.P,J4,8,Pin_8*%
%TO.N,/RX{slash}0*%
X163500000Y-49200000D03*
%TD*%
D12*
%TO.P,R8,1*%
%TO.N,VCC*%
X160960000Y-69520000D03*
D13*
%TO.P,R8,2*%
%TO.N,VHEAT*%
X160960000Y-59360000D03*
%TD*%
D12*
%TO.P,C5,1*%
%TO.N,VCC*%
X145680000Y-101270000D03*
%TO.P,C5,2*%
%TO.N,GND*%
X140680000Y-101270000D03*
%TD*%
%TO.P,C2,1*%
%TO.N,VADC_GAS*%
X158380000Y-91110000D03*
%TO.P,C2,2*%
%TO.N,GND*%
X153380000Y-91110000D03*
%TD*%
D14*
%TO.P,U1,1,NC*%
%TO.N,unconnected-(U1-NC-Pad1)*%
X127950000Y-80960000D03*
D13*
%TO.P,U1,2,-*%
%TO.N,R2*%
X127950000Y-83500000D03*
%TO.P,U1,3,+*%
%TO.N,Net-(U1-+)*%
X127950000Y-86040000D03*
%TO.P,U1,4,V-*%
%TO.N,GND*%
X127950000Y-88580000D03*
%TO.P,U1,5,NC*%
%TO.N,unconnected-(U1-NC-Pad5)*%
X135570000Y-88580000D03*
%TO.P,U1,6*%
%TO.N,Net-(C4-Pad2)*%
X135570000Y-86040000D03*
%TO.P,U1,7,V+*%
%TO.N,+5V*%
X135570000Y-83500000D03*
%TO.P,U1,8,NC*%
%TO.N,unconnected-(U1-NC-Pad8)*%
X135570000Y-80960000D03*
%TD*%
D10*
%TO.P,J7,1,Pin_1*%
%TO.N,TX*%
X105613000Y-61661000D03*
D11*
%TO.P,J7,2,Pin_2*%
%TO.N,RX*%
X105613000Y-64201000D03*
%TO.P,J7,3,Pin_3*%
%TO.N,unconnected-(J7-Pin_3-Pad3)*%
X105613000Y-66741000D03*
%TO.P,J7,4,Pin_4*%
%TO.N,unconnected-(J7-Pin_4-Pad4)*%
X105613000Y-69281000D03*
%TO.P,J7,5,Pin_5*%
%TO.N,RST*%
X105613000Y-71821000D03*
%TO.P,J7,6,Pin_6*%
%TO.N,+5V*%
X105613000Y-74361000D03*
%TO.P,J7,7,Pin_7*%
%TO.N,unconnected-(J7-Pin_7-Pad7)*%
X105613000Y-76901000D03*
%TO.P,J7,8,Pin_8*%
%TO.N,GND*%
X105613000Y-79441000D03*
%TD*%
D12*
%TO.P,R1,1*%
%TO.N,Net-(U1-+)*%
X121590000Y-80950000D03*
D13*
%TO.P,R1,2*%
%TO.N,GND*%
X121590000Y-91110000D03*
%TD*%
D12*
%TO.P,R7,1*%
%TO.N,Net-(Q1-G)*%
X153340000Y-55550000D03*
D13*
%TO.P,R7,2*%
%TO.N,PWM*%
X163500000Y-55550000D03*
%TD*%
D12*
%TO.P,C1,1*%
%TO.N,Net-(U1-+)*%
X113970000Y-86070000D03*
%TO.P,C1,2*%
%TO.N,GND*%
X113970000Y-91070000D03*
%TD*%
D15*
%TO.P,Q1,1,G*%
%TO.N,Net-(Q1-G)*%
X153665000Y-61265000D03*
D16*
%TO.P,Q1,2,D*%
%TO.N,VHEAT*%
X153665000Y-63805000D03*
%TO.P,Q1,3,S*%
%TO.N,GND*%
X153665000Y-66345000D03*
%TD*%
D10*
%TO.P,J5,1,Pin_1*%
%TO.N,IGAS1*%
X144450000Y-72060000D03*
D11*
%TO.P,J5,2,Pin_2*%
%TO.N,Net-(J5-Pin_2)*%
X146990000Y-72060000D03*
%TO.P,J5,3,Pin_3*%
%TO.N,IGAS2*%
X149530000Y-72060000D03*
%TD*%
D17*
%TO.P,GS1,1,TempA*%
%TO.N,VADC_TEMP*%
X138087670Y-63170000D03*
D18*
%TO.P,GS1,2,Gas1A*%
%TO.N,IGAS1*%
X138645340Y-64886333D03*
%TO.P,GS1,3,HeatA*%
%TO.N,VHEAT*%
X140105340Y-65947085D03*
%TO.P,GS1,4,Gas1B*%
%TO.N,+5V*%
X141910000Y-65947085D03*
%TO.P,GS1,5,NC*%
%TO.N,unconnected-(GS1-NC-Pad5)*%
X143370000Y-64886333D03*
%TO.P,GS1,6,TempB*%
%TO.N,GND*%
X143927670Y-63170000D03*
%TO.P,GS1,7,Gas2A*%
%TO.N,IGAS2*%
X143370000Y-61453667D03*
%TO.P,GS1,8,HeatB*%
%TO.N,GND*%
X141910000Y-60392915D03*
%TO.P,GS1,9,Gas2B*%
%TO.N,+5V*%
X140105340Y-60392915D03*
%TO.P,GS1,10,NC*%
%TO.N,IGAS1*%
X138645340Y-61453667D03*
%TD*%
D12*
%TO.P,R3,1*%
%TO.N,R2*%
X146990000Y-78410000D03*
D13*
%TO.P,R3,2*%
%TO.N,Net-(C4-Pad2)*%
X146990000Y-88570000D03*
%TD*%
D14*
%TO.P,U2,1,~{CS}*%
%TO.N,CS*%
X121600000Y-59370000D03*
D13*
%TO.P,U2,2,SCK*%
%TO.N,SCK*%
X121600000Y-61910000D03*
%TO.P,U2,3,SI*%
%TO.N,SMOSI*%
X121600000Y-64450000D03*
%TO.P,U2,4,VSS*%
%TO.N,GND*%
X121600000Y-66990000D03*
%TO.P,U2,5,PA0*%
%TO.N,R2*%
X129220000Y-66990000D03*
%TO.P,U2,6,PW0*%
%TO.N,GND*%
X129220000Y-64450000D03*
%TO.P,U2,7,PB0*%
X129220000Y-61910000D03*
%TO.P,U2,8,VDD*%
%TO.N,+5V*%
X129220000Y-59370000D03*
%TD*%
D12*
%TO.P,R6,1*%
%TO.N,Net-(C4-Pad2)*%
X162230000Y-78410000D03*
D13*
%TO.P,R6,2*%
%TO.N,VADC_GAS*%
X162230000Y-88570000D03*
%TD*%
D12*
%TO.P,R5,1*%
%TO.N,Net-(J5-Pin_2)*%
X113970000Y-68250000D03*
D13*
%TO.P,R5,2*%
%TO.N,Net-(U1-+)*%
X113970000Y-78410000D03*
%TD*%
D12*
%TO.P,C4,1*%
%TO.N,R2*%
X153340000Y-80990000D03*
%TO.P,C4,2*%
%TO.N,Net-(C4-Pad2)*%
X153340000Y-85990000D03*
%TD*%
%TO.P,C3,1*%
%TO.N,+5V*%
X141910000Y-83530000D03*
%TO.P,C3,2*%
%TO.N,GND*%
X141910000Y-88530000D03*
%TD*%
%TO.P,R4,1*%
%TO.N,+5V*%
X138100000Y-80950000D03*
D13*
%TO.P,R4,2*%
%TO.N,VADC_TEMP*%
X138100000Y-70790000D03*
%TD*%
D19*
%TO.N,R2*%
X132430500Y-66920500D03*
X131750000Y-74600000D03*
%TO.N,Net-(C4-Pad2)*%
X146990000Y-91110000D03*
X135560000Y-92380000D03*
%TO.N,VADC_TEMP*%
X143180000Y-78599000D03*
X140640000Y-72200500D03*
%TO.N,IGAS2*%
X152070000Y-72060000D03*
X146930980Y-60869798D03*
%TO.N,SMOSI*%
X131750000Y-53010000D03*
X125273353Y-54293853D03*
%TD*%
D20*
%TO.N,R2*%
X131750000Y-74600000D02*
X131750000Y-70790000D01*
X132480000Y-66970000D02*
X132430500Y-66920500D01*
X132480000Y-70060000D02*
X132480000Y-66970000D01*
X131750000Y-70790000D02*
X132480000Y-70060000D01*
%TO.N,Net-(C4-Pad2)*%
X135560000Y-92380000D02*
X145720000Y-92380000D01*
X145720000Y-92380000D02*
X146990000Y-91110000D01*
%TO.N,VADC_TEMP*%
X140640000Y-76059000D02*
X140640000Y-72200500D01*
X143180000Y-78599000D02*
X140640000Y-76059000D01*
%TO.N,IGAS2*%
X150800000Y-64738878D02*
X150800000Y-68250000D01*
X146930980Y-60869858D02*
X150800000Y-64738878D01*
X146930980Y-60869798D02*
X146930980Y-60869858D01*
X152070000Y-69520000D02*
X152070000Y-72060000D01*
X150800000Y-68250000D02*
X152070000Y-69520000D01*
%TO.N,SMOSI*%
X131750000Y-53010000D02*
X126557206Y-53010000D01*
X126557206Y-53010000D02*
X125273353Y-54293853D01*
%TD*%
M02*
