M48
; DRILL file {KiCad 7.0.9} date Wed Dec 13 07:22:02 2023
; FORMAT={-:-/ absolute / metric / decimal}
; #@! TF.CreationDate,2023-12-13T07:22:02+01:00
; #@! TF.GenerationSoftware,Kicad,Pcbnew,7.0.9
; #@! TF.FileFunction,Plated,1,2,PTH
FMAT,2
METRIC
; #@! TA.AperFunction,Plated,PTH,ViaDrill
T1C0.400
; #@! TA.AperFunction,Plated,PTH,ComponentDrill
T2C0.700
; #@! TA.AperFunction,Plated,PTH,ComponentDrill
T3C0.800
; #@! TA.AperFunction,Plated,PTH,ComponentDrill
T4C1.000
; #@! TA.AperFunction,Plated,PTH,ComponentDrill
T5C1.100
%
G90
G05
T1
X125.273Y-54.294
X131.75Y-53.01
X131.75Y-74.6
X132.43Y-66.92
X135.56Y-92.38
X140.64Y-72.2
X143.18Y-78.599
X146.931Y-60.87
X146.99Y-91.11
X152.07Y-72.06
T2
X138.088Y-63.17
X138.645Y-61.454
X138.645Y-64.886
X140.105Y-60.393
X140.105Y-65.947
X141.91Y-60.393
X141.91Y-65.947
X143.37Y-61.454
X143.37Y-64.886
X143.928Y-63.17
T3
X113.97Y-68.25
X113.97Y-78.41
X113.97Y-86.07
X113.97Y-91.07
X121.59Y-80.95
X121.59Y-91.11
X121.6Y-59.37
X121.6Y-61.91
X121.6Y-64.45
X121.6Y-66.99
X127.95Y-80.96
X127.95Y-83.5
X127.95Y-86.04
X127.95Y-88.58
X129.22Y-59.37
X129.22Y-61.91
X129.22Y-64.45
X129.22Y-66.99
X135.57Y-80.96
X135.57Y-83.5
X135.57Y-86.04
X135.57Y-88.58
X138.1Y-70.79
X138.1Y-80.95
X140.68Y-101.27
X141.91Y-83.53
X141.91Y-88.53
X145.68Y-101.27
X146.99Y-78.41
X146.99Y-88.57
X153.34Y-55.55
X153.34Y-80.99
X153.34Y-85.99
X153.38Y-91.11
X158.38Y-91.11
X160.96Y-59.36
X160.96Y-69.52
X162.23Y-78.41
X162.23Y-88.57
X163.5Y-55.55
T4
X105.613Y-61.661
X105.613Y-64.201
X105.613Y-66.741
X105.613Y-69.281
X105.613Y-71.821
X105.613Y-74.361
X105.613Y-76.901
X105.613Y-79.441
X118.796Y-49.2
X121.336Y-49.2
X123.876Y-49.2
X126.416Y-49.2
X127.94Y-97.46
X128.956Y-49.2
X130.48Y-97.46
X131.496Y-49.2
X133.02Y-97.46
X134.036Y-49.2
X135.56Y-97.46
X136.576Y-49.2
X138.1Y-97.46
X139.116Y-49.2
X140.64Y-97.46
X141.656Y-49.2
X143.18Y-97.46
X144.45Y-72.06
X145.72Y-49.2
X145.72Y-97.46
X146.99Y-72.06
X148.26Y-49.2
X149.53Y-72.06
X150.8Y-49.2
X150.8Y-97.46
X153.34Y-49.2
X153.34Y-97.46
X155.88Y-49.2
X155.88Y-97.46
X158.42Y-49.2
X158.42Y-97.46
X160.96Y-49.2
X160.96Y-97.46
X163.5Y-49.2
X163.5Y-97.46
T5
X153.665Y-61.265
X153.665Y-63.805
X153.665Y-66.345
T0
M30
