%TF.GenerationSoftware,KiCad,Pcbnew,7.0.9*%
%TF.CreationDate,2023-12-15T17:57:28+01:00*%
%TF.ProjectId,MOSHield2,4d4f5348-6965-46c6-9432-2e6b69636164,rev?*%
%TF.SameCoordinates,Original*%
%TF.FileFunction,Copper,L1,Top*%
%TF.FilePolarity,Positive*%
%FSLAX46Y46*%
G04 Gerber Fmt 4.6, Leading zero omitted, Abs format (unit mm)*
G04 Created by KiCad (PCBNEW 7.0.9) date 2023-12-15 17:57:28*
%MOMM*%
%LPD*%
G01*
G04 APERTURE LIST*
%TA.AperFunction,ComponentPad*%
%ADD10R,1.700000X1.700000*%
%TD*%
%TA.AperFunction,ComponentPad*%
%ADD11O,1.700000X1.700000*%
%TD*%
%TA.AperFunction,ComponentPad*%
%ADD12C,1.600000*%
%TD*%
%TA.AperFunction,ComponentPad*%
%ADD13O,1.600000X1.600000*%
%TD*%
%TA.AperFunction,ComponentPad*%
%ADD14R,1.600000X1.600000*%
%TD*%
%TA.AperFunction,ComponentPad*%
%ADD15R,1.905000X2.000000*%
%TD*%
%TA.AperFunction,ComponentPad*%
%ADD16O,1.905000X2.000000*%
%TD*%
%TA.AperFunction,ComponentPad*%
%ADD17O,1.800000X1.500000*%
%TD*%
%TA.AperFunction,ComponentPad*%
%ADD18O,1.500000X1.500000*%
%TD*%
%TA.AperFunction,ComponentPad*%
%ADD19O,1.550000X1.500000*%
%TD*%
%TA.AperFunction,ViaPad*%
%ADD20C,0.600000*%
%TD*%
%TA.AperFunction,Conductor*%
%ADD21C,0.800000*%
%TD*%
G04 APERTURE END LIST*
D10*
%TO.P,J1,1,Pin_1*%
%TO.N,unconnected-(J1-Pin_1-Pad1)*%
X127940000Y-97460000D03*
D11*
%TO.P,J1,2,Pin_2*%
%TO.N,/IOREF*%
X130480000Y-97460000D03*
%TO.P,J1,3,Pin_3*%
%TO.N,/~{RESET}*%
X133020000Y-97460000D03*
%TO.P,J1,4,Pin_4*%
%TO.N,+3.3V*%
X135560000Y-97460000D03*
%TO.P,J1,5,Pin_5*%
%TO.N,+5V*%
X138100000Y-97460000D03*
%TO.P,J1,6,Pin_6*%
%TO.N,GND*%
X140640000Y-97460000D03*
%TO.P,J1,7,Pin_7*%
X143180000Y-97460000D03*
%TO.P,J1,8,Pin_8*%
%TO.N,VCC*%
X145720000Y-97460000D03*
%TD*%
D10*
%TO.P,J3,1,Pin_1*%
%TO.N,VADC_GAS*%
X150800000Y-97460000D03*
D11*
%TO.P,J3,2,Pin_2*%
%TO.N,VADC_TEMP*%
X153340000Y-97460000D03*
%TO.P,J3,3,Pin_3*%
%TO.N,/A2*%
X155880000Y-97460000D03*
%TO.P,J3,4,Pin_4*%
%TO.N,/A3*%
X158420000Y-97460000D03*
%TO.P,J3,5,Pin_5*%
%TO.N,/SDA{slash}A4*%
X160960000Y-97460000D03*
%TO.P,J3,6,Pin_6*%
%TO.N,/SCL{slash}A5*%
X163500000Y-97460000D03*
%TD*%
D10*
%TO.P,J2,1,Pin_1*%
%TO.N,/SCL{slash}A5*%
X118796000Y-49200000D03*
D11*
%TO.P,J2,2,Pin_2*%
%TO.N,/SDA{slash}A4*%
X121336000Y-49200000D03*
%TO.P,J2,3,Pin_3*%
%TO.N,/AREF*%
X123876000Y-49200000D03*
%TO.P,J2,4,Pin_4*%
%TO.N,GND*%
X126416000Y-49200000D03*
%TO.P,J2,5,Pin_5*%
%TO.N,SCK*%
X128956000Y-49200000D03*
%TO.P,J2,6,Pin_6*%
%TO.N,/12*%
X131496000Y-49200000D03*
%TO.P,J2,7,Pin_7*%
%TO.N,SMOSI*%
X134036000Y-49200000D03*
%TO.P,J2,8,Pin_8*%
%TO.N,CS*%
X136576000Y-49200000D03*
%TO.P,J2,9,Pin_9*%
%TO.N,/\u002A9*%
X139116000Y-49200000D03*
%TO.P,J2,10,Pin_10*%
%TO.N,/8*%
X141656000Y-49200000D03*
%TD*%
D10*
%TO.P,J4,1,Pin_1*%
%TO.N,/7*%
X145720000Y-49200000D03*
D11*
%TO.P,J4,2,Pin_2*%
%TO.N,PWM*%
X148260000Y-49200000D03*
%TO.P,J4,3,Pin_3*%
%TO.N,RST*%
X150800000Y-49200000D03*
%TO.P,J4,4,Pin_4*%
%TO.N,RX*%
X153340000Y-49200000D03*
%TO.P,J4,5,Pin_5*%
%TO.N,TX*%
X155880000Y-49200000D03*
%TO.P,J4,6,Pin_6*%
%TO.N,/2*%
X158420000Y-49200000D03*
%TO.P,J4,7,Pin_7*%
%TO.N,/TX{slash}1*%
X160960000Y-49200000D03*
%TO.P,J4,8,Pin_8*%
%TO.N,/RX{slash}0*%
X163500000Y-49200000D03*
%TD*%
D12*
%TO.P,C4,1*%
%TO.N,R2*%
X133060000Y-74600000D03*
%TO.P,C4,2*%
%TO.N,Net-(C4-Pad2)*%
X138060000Y-74600000D03*
%TD*%
D10*
%TO.P,J5,1,Pin_1*%
%TO.N,IGAS1*%
X110160000Y-83505000D03*
D11*
%TO.P,J5,2,Pin_2*%
%TO.N,Net-(J5-Pin_2)*%
X110160000Y-86045000D03*
%TO.P,J5,3,Pin_3*%
%TO.N,IGAS2*%
X110160000Y-88585000D03*
%TD*%
D12*
%TO.P,C5,1*%
%TO.N,VCC*%
X143140000Y-88570000D03*
%TO.P,C5,2*%
%TO.N,GND*%
X138140000Y-88570000D03*
%TD*%
%TO.P,C6,1*%
%TO.N,+3.3V*%
X135560000Y-94840000D03*
%TO.P,C6,2*%
%TO.N,GND*%
X135560000Y-89840000D03*
%TD*%
%TO.P,R8,1*%
%TO.N,VCC*%
X145720000Y-83490000D03*
D13*
%TO.P,R8,2*%
%TO.N,VHEAT*%
X145720000Y-73330000D03*
%TD*%
D12*
%TO.P,C1,1*%
%TO.N,Net-(U1-+)*%
X138100000Y-79720000D03*
%TO.P,C1,2*%
%TO.N,GND*%
X138100000Y-84720000D03*
%TD*%
%TO.P,R3,1*%
%TO.N,R2*%
X127940000Y-69520000D03*
D13*
%TO.P,R3,2*%
%TO.N,Net-(C4-Pad2)*%
X138100000Y-69520000D03*
%TD*%
D14*
%TO.P,U1,1,NC*%
%TO.N,unconnected-(U1-NC-Pad1)*%
X152080000Y-78420000D03*
D13*
%TO.P,U1,2,-*%
%TO.N,R2*%
X152080000Y-80960000D03*
%TO.P,U1,3,+*%
%TO.N,Net-(U1-+)*%
X152080000Y-83500000D03*
%TO.P,U1,4,V-*%
%TO.N,GND*%
X152080000Y-86040000D03*
%TO.P,U1,5,NC*%
%TO.N,unconnected-(U1-NC-Pad5)*%
X159700000Y-86040000D03*
%TO.P,U1,6*%
%TO.N,Net-(C4-Pad2)*%
X159700000Y-83500000D03*
%TO.P,U1,7,V+*%
%TO.N,+5V*%
X159700000Y-80960000D03*
%TO.P,U1,8,NC*%
%TO.N,unconnected-(U1-NC-Pad8)*%
X159700000Y-78420000D03*
%TD*%
D15*
%TO.P,Q1,1,G*%
%TO.N,Net-(Q1-G)*%
X150800000Y-68575000D03*
D16*
%TO.P,Q1,2,D*%
%TO.N,VHEAT*%
X148260000Y-68575000D03*
%TO.P,Q1,3,S*%
%TO.N,GND*%
X145720000Y-68575000D03*
%TD*%
D12*
%TO.P,R7,1*%
%TO.N,Net-(Q1-G)*%
X148260000Y-64440000D03*
D13*
%TO.P,R7,2*%
%TO.N,PWM*%
X148260000Y-54280000D03*
%TD*%
D12*
%TO.P,R6,1*%
%TO.N,Net-(C4-Pad2)*%
X162230000Y-91110000D03*
D13*
%TO.P,R6,2*%
%TO.N,VADC_GAS*%
X152070000Y-91110000D03*
%TD*%
D12*
%TO.P,C2,1*%
%TO.N,VADC_GAS*%
X149530000Y-92340000D03*
%TO.P,C2,2*%
%TO.N,GND*%
X149530000Y-87340000D03*
%TD*%
D14*
%TO.P,U2,1,~{CS}*%
%TO.N,CS*%
X133030000Y-54290000D03*
D13*
%TO.P,U2,2,SCK*%
%TO.N,SCK*%
X133030000Y-56830000D03*
%TO.P,U2,3,SI*%
%TO.N,SMOSI*%
X133030000Y-59370000D03*
%TO.P,U2,4,VSS*%
%TO.N,GND*%
X133030000Y-61910000D03*
%TO.P,U2,5,PA0*%
%TO.N,R2*%
X140650000Y-61910000D03*
%TO.P,U2,6,PW0*%
%TO.N,GND*%
X140650000Y-59370000D03*
%TO.P,U2,7,PB0*%
X140650000Y-56830000D03*
%TO.P,U2,8,VDD*%
%TO.N,+5V*%
X140650000Y-54290000D03*
%TD*%
D10*
%TO.P,J7,1,Pin_1*%
%TO.N,TX*%
X162230000Y-55550000D03*
D11*
%TO.P,J7,2,Pin_2*%
%TO.N,RX*%
X162230000Y-58090000D03*
%TO.P,J7,3,Pin_3*%
%TO.N,unconnected-(J7-Pin_3-Pad3)*%
X162230000Y-60630000D03*
%TO.P,J7,4,Pin_4*%
%TO.N,unconnected-(J7-Pin_4-Pad4)*%
X162230000Y-63170000D03*
%TO.P,J7,5,Pin_5*%
%TO.N,RST*%
X162230000Y-65710000D03*
%TO.P,J7,6,Pin_6*%
%TO.N,+3.3V*%
X162230000Y-68250000D03*
%TO.P,J7,7,Pin_7*%
%TO.N,unconnected-(J7-Pin_7-Pad7)*%
X162230000Y-70790000D03*
%TO.P,J7,8,Pin_8*%
%TO.N,GND*%
X162230000Y-73330000D03*
%TD*%
D12*
%TO.P,R4,1*%
%TO.N,+5V*%
X131750000Y-93650000D03*
D13*
%TO.P,R4,2*%
%TO.N,VADC_TEMP*%
X121590000Y-93650000D03*
%TD*%
D12*
%TO.P,R5,1*%
%TO.N,Net-(J5-Pin_2)*%
X113970000Y-86030000D03*
D13*
%TO.P,R5,2*%
%TO.N,Net-(U1-+)*%
X124130000Y-86030000D03*
%TD*%
D17*
%TO.P,GS1,1,TempA*%
%TO.N,VADC_TEMP*%
X116135000Y-64440000D03*
D18*
%TO.P,GS1,2,Gas1A*%
%TO.N,IGAS1*%
X116692670Y-66156333D03*
%TO.P,GS1,3,HeatA*%
%TO.N,VHEAT*%
X118152670Y-67217085D03*
%TO.P,GS1,4,Gas1B*%
%TO.N,+5V*%
X119957330Y-67217085D03*
%TO.P,GS1,5,NC*%
%TO.N,unconnected-(GS1-NC-Pad5)*%
X121417330Y-66156333D03*
%TO.P,GS1,6,TempB*%
%TO.N,GND*%
X121975000Y-64440000D03*
%TO.P,GS1,7,Gas2A*%
%TO.N,IGAS2*%
X121417330Y-62723667D03*
D19*
%TO.P,GS1,8,HeatB*%
%TO.N,GND*%
X119957330Y-61662915D03*
D18*
%TO.P,GS1,9,Gas2B*%
%TO.N,+5V*%
X118152670Y-61662915D03*
%TO.P,GS1,10,NC*%
%TO.N,unconnected-(GS1-NC-Pad10)*%
X116692670Y-62723667D03*
%TD*%
D12*
%TO.P,C3,1*%
%TO.N,+5V*%
X138180000Y-93650000D03*
%TO.P,C3,2*%
%TO.N,GND*%
X143180000Y-93650000D03*
%TD*%
%TO.P,R1,1*%
%TO.N,Net-(U1-+)*%
X131750000Y-79680000D03*
D13*
%TO.P,R1,2*%
%TO.N,GND*%
X131750000Y-89840000D03*
%TD*%
D20*
%TO.N,VADC_TEMP*%
X113970000Y-73330000D03*
X113970000Y-65710000D03*
%TO.N,VHEAT*%
X117780000Y-72060000D03*
X141910000Y-73330000D03*
%TD*%
D21*
%TO.N,VADC_TEMP*%
X113970000Y-73330000D02*
X113970000Y-65710000D01*
%TO.N,VHEAT*%
X141180000Y-72600000D02*
X141910000Y-73330000D01*
X118320000Y-72600000D02*
X141180000Y-72600000D01*
X117780000Y-72060000D02*
X118320000Y-72600000D01*
%TD*%
M02*
