M48
; DRILL file {KiCad 7.0.9} date Fri Dec 15 11:06:39 2023
; FORMAT={-:-/ absolute / metric / decimal}
; #@! TF.CreationDate,2023-12-15T11:06:39+01:00
; #@! TF.GenerationSoftware,Kicad,Pcbnew,7.0.9
; #@! TF.FileFunction,Plated,1,2,PTH
FMAT,2
METRIC
; #@! TA.AperFunction,Plated,PTH,ViaDrill
T1C0.400
; #@! TA.AperFunction,Plated,PTH,ComponentDrill
T2C0.700
; #@! TA.AperFunction,Plated,PTH,ComponentDrill
T3C0.800
; #@! TA.AperFunction,Plated,PTH,ComponentDrill
T4C1.000
; #@! TA.AperFunction,Plated,PTH,ComponentDrill
T5C1.100
%
G90
G05
T1
X113.97Y-65.71
X113.97Y-73.33
X117.78Y-72.06
X141.91Y-73.33
T2
X116.135Y-64.44
X116.693Y-62.724
X116.693Y-66.156
X118.153Y-61.663
X118.153Y-67.217
X119.957Y-61.663
X119.957Y-67.217
X121.417Y-62.724
X121.417Y-66.156
X121.975Y-64.44
T3
X113.97Y-86.03
X121.59Y-93.65
X124.13Y-86.03
X127.94Y-69.52
X131.75Y-79.68
X131.75Y-89.84
X131.75Y-93.65
X133.03Y-54.29
X133.03Y-56.83
X133.03Y-59.37
X133.03Y-61.91
X133.06Y-74.6
X135.56Y-89.84
X135.56Y-94.84
X138.06Y-74.6
X138.1Y-69.52
X138.1Y-79.72
X138.1Y-84.72
X138.14Y-88.57
X138.18Y-93.65
X140.65Y-54.29
X140.65Y-56.83
X140.65Y-59.37
X140.65Y-61.91
X143.14Y-88.57
X143.18Y-93.65
X145.72Y-73.33
X145.72Y-83.49
X148.26Y-54.28
X148.26Y-64.44
X149.53Y-87.34
X149.53Y-92.34
X152.07Y-91.11
X152.08Y-78.42
X152.08Y-80.96
X152.08Y-83.5
X152.08Y-86.04
X159.7Y-78.42
X159.7Y-80.96
X159.7Y-83.5
X159.7Y-86.04
X162.23Y-91.11
T4
X110.16Y-83.505
X110.16Y-86.045
X110.16Y-88.585
X118.796Y-49.2
X121.336Y-49.2
X123.876Y-49.2
X126.416Y-49.2
X127.94Y-97.46
X128.956Y-49.2
X130.48Y-97.46
X131.496Y-49.2
X133.02Y-97.46
X134.036Y-49.2
X135.56Y-97.46
X136.576Y-49.2
X138.1Y-97.46
X139.116Y-49.2
X140.64Y-97.46
X141.656Y-49.2
X143.18Y-97.46
X145.72Y-49.2
X145.72Y-97.46
X148.26Y-49.2
X150.8Y-49.2
X150.8Y-97.46
X153.34Y-49.2
X153.34Y-97.46
X155.88Y-49.2
X155.88Y-97.46
X158.42Y-49.2
X158.42Y-97.46
X160.96Y-49.2
X160.96Y-97.46
X162.23Y-55.55
X162.23Y-58.09
X162.23Y-60.63
X162.23Y-63.17
X162.23Y-65.71
X162.23Y-68.25
X162.23Y-70.79
X162.23Y-73.33
X163.5Y-49.2
X163.5Y-97.46
T5
X145.72Y-68.575
X148.26Y-68.575
X150.8Y-68.575
T0
M30
