%TF.GenerationSoftware,KiCad,Pcbnew,7.0.9*%
%TF.CreationDate,2023-12-15T17:57:31+01:00*%
%TF.ProjectId,MOSHield2,4d4f5348-6965-46c6-9432-2e6b69636164,rev?*%
%TF.SameCoordinates,Original*%
%TF.FileFunction,Plated,1,2,PTH,Drill*%
%TF.FilePolarity,Positive*%
%FSLAX46Y46*%
G04 Gerber Fmt 4.6, Leading zero omitted, Abs format (unit mm)*
G04 Created by KiCad (PCBNEW 7.0.9) date 2023-12-15 17:57:31*
%MOMM*%
%LPD*%
G01*
G04 APERTURE LIST*
%TA.AperFunction,ViaDrill*%
%ADD10C,0.400000*%
%TD*%
%TA.AperFunction,ComponentDrill*%
%ADD11C,0.700000*%
%TD*%
%TA.AperFunction,ComponentDrill*%
%ADD12C,0.800000*%
%TD*%
%TA.AperFunction,ComponentDrill*%
%ADD13C,1.000000*%
%TD*%
%TA.AperFunction,ComponentDrill*%
%ADD14C,1.100000*%
%TD*%
G04 APERTURE END LIST*
D10*
X113970000Y-65710000D03*
X113970000Y-73330000D03*
X117780000Y-72060000D03*
X141910000Y-73330000D03*
D11*
%TO.C,GS1*%
X116135000Y-64440000D03*
X116692670Y-62723667D03*
X116692670Y-66156333D03*
X118152670Y-61662915D03*
X118152670Y-67217085D03*
X119957330Y-61662915D03*
X119957330Y-67217085D03*
X121417330Y-62723667D03*
X121417330Y-66156333D03*
X121975000Y-64440000D03*
D12*
%TO.C,R5*%
X113970000Y-86030000D03*
%TO.C,R4*%
X121590000Y-93650000D03*
%TO.C,R5*%
X124130000Y-86030000D03*
%TO.C,R3*%
X127940000Y-69520000D03*
%TO.C,R1*%
X131750000Y-79680000D03*
X131750000Y-89840000D03*
%TO.C,R4*%
X131750000Y-93650000D03*
%TO.C,U2*%
X133030000Y-54290000D03*
X133030000Y-56830000D03*
X133030000Y-59370000D03*
X133030000Y-61910000D03*
%TO.C,C4*%
X133060000Y-74600000D03*
%TO.C,C6*%
X135560000Y-89840000D03*
X135560000Y-94840000D03*
%TO.C,C4*%
X138060000Y-74600000D03*
%TO.C,R3*%
X138100000Y-69520000D03*
%TO.C,C1*%
X138100000Y-79720000D03*
X138100000Y-84720000D03*
%TO.C,C5*%
X138140000Y-88570000D03*
%TO.C,C3*%
X138180000Y-93650000D03*
%TO.C,U2*%
X140650000Y-54290000D03*
X140650000Y-56830000D03*
X140650000Y-59370000D03*
X140650000Y-61910000D03*
%TO.C,C5*%
X143140000Y-88570000D03*
%TO.C,C3*%
X143180000Y-93650000D03*
%TO.C,R8*%
X145720000Y-73330000D03*
X145720000Y-83490000D03*
%TO.C,R7*%
X148260000Y-54280000D03*
X148260000Y-64440000D03*
%TO.C,C2*%
X149530000Y-87340000D03*
X149530000Y-92340000D03*
%TO.C,R6*%
X152070000Y-91110000D03*
%TO.C,U1*%
X152080000Y-78420000D03*
X152080000Y-80960000D03*
X152080000Y-83500000D03*
X152080000Y-86040000D03*
X159700000Y-78420000D03*
X159700000Y-80960000D03*
X159700000Y-83500000D03*
X159700000Y-86040000D03*
%TO.C,R6*%
X162230000Y-91110000D03*
D13*
%TO.C,J5*%
X110160000Y-83505000D03*
X110160000Y-86045000D03*
X110160000Y-88585000D03*
%TO.C,J2*%
X118796000Y-49200000D03*
X121336000Y-49200000D03*
X123876000Y-49200000D03*
X126416000Y-49200000D03*
%TO.C,J1*%
X127940000Y-97460000D03*
%TO.C,J2*%
X128956000Y-49200000D03*
%TO.C,J1*%
X130480000Y-97460000D03*
%TO.C,J2*%
X131496000Y-49200000D03*
%TO.C,J1*%
X133020000Y-97460000D03*
%TO.C,J2*%
X134036000Y-49200000D03*
%TO.C,J1*%
X135560000Y-97460000D03*
%TO.C,J2*%
X136576000Y-49200000D03*
%TO.C,J1*%
X138100000Y-97460000D03*
%TO.C,J2*%
X139116000Y-49200000D03*
%TO.C,J1*%
X140640000Y-97460000D03*
%TO.C,J2*%
X141656000Y-49200000D03*
%TO.C,J1*%
X143180000Y-97460000D03*
%TO.C,J4*%
X145720000Y-49200000D03*
%TO.C,J1*%
X145720000Y-97460000D03*
%TO.C,J4*%
X148260000Y-49200000D03*
X150800000Y-49200000D03*
%TO.C,J3*%
X150800000Y-97460000D03*
%TO.C,J4*%
X153340000Y-49200000D03*
%TO.C,J3*%
X153340000Y-97460000D03*
%TO.C,J4*%
X155880000Y-49200000D03*
%TO.C,J3*%
X155880000Y-97460000D03*
%TO.C,J4*%
X158420000Y-49200000D03*
%TO.C,J3*%
X158420000Y-97460000D03*
%TO.C,J4*%
X160960000Y-49200000D03*
%TO.C,J3*%
X160960000Y-97460000D03*
%TO.C,J7*%
X162230000Y-55550000D03*
X162230000Y-58090000D03*
X162230000Y-60630000D03*
X162230000Y-63170000D03*
X162230000Y-65710000D03*
X162230000Y-68250000D03*
X162230000Y-70790000D03*
X162230000Y-73330000D03*
%TO.C,J4*%
X163500000Y-49200000D03*
%TO.C,J3*%
X163500000Y-97460000D03*
D14*
%TO.C,Q1*%
X145720000Y-68575000D03*
X148260000Y-68575000D03*
X150800000Y-68575000D03*
M02*
