%TF.GenerationSoftware,KiCad,Pcbnew,7.0.9*%
%TF.CreationDate,2023-12-15T11:06:34+01:00*%
%TF.ProjectId,MOSHield2,4d4f5348-6965-46c6-9432-2e6b69636164,rev?*%
%TF.SameCoordinates,Original*%
%TF.FileFunction,Legend,Top*%
%TF.FilePolarity,Positive*%
%FSLAX46Y46*%
G04 Gerber Fmt 4.6, Leading zero omitted, Abs format (unit mm)*
G04 Created by KiCad (PCBNEW 7.0.9) date 2023-12-15 11:06:34*
%MOMM*%
%LPD*%
G01*
G04 APERTURE LIST*
%ADD10C,0.150000*%
%ADD11C,0.120000*%
G04 APERTURE END LIST*
D10*
X133419580Y-92506666D02*
X133467200Y-92554285D01*
X133467200Y-92554285D02*
X133514819Y-92697142D01*
X133514819Y-92697142D02*
X133514819Y-92792380D01*
X133514819Y-92792380D02*
X133467200Y-92935237D01*
X133467200Y-92935237D02*
X133371961Y-93030475D01*
X133371961Y-93030475D02*
X133276723Y-93078094D01*
X133276723Y-93078094D02*
X133086247Y-93125713D01*
X133086247Y-93125713D02*
X132943390Y-93125713D01*
X132943390Y-93125713D02*
X132752914Y-93078094D01*
X132752914Y-93078094D02*
X132657676Y-93030475D01*
X132657676Y-93030475D02*
X132562438Y-92935237D01*
X132562438Y-92935237D02*
X132514819Y-92792380D01*
X132514819Y-92792380D02*
X132514819Y-92697142D01*
X132514819Y-92697142D02*
X132562438Y-92554285D01*
X132562438Y-92554285D02*
X132610057Y-92506666D01*
X132514819Y-91649523D02*
X132514819Y-91839999D01*
X132514819Y-91839999D02*
X132562438Y-91935237D01*
X132562438Y-91935237D02*
X132610057Y-91982856D01*
X132610057Y-91982856D02*
X132752914Y-92078094D01*
X132752914Y-92078094D02*
X132943390Y-92125713D01*
X132943390Y-92125713D02*
X133324342Y-92125713D01*
X133324342Y-92125713D02*
X133419580Y-92078094D01*
X133419580Y-92078094D02*
X133467200Y-92030475D01*
X133467200Y-92030475D02*
X133514819Y-91935237D01*
X133514819Y-91935237D02*
X133514819Y-91744761D01*
X133514819Y-91744761D02*
X133467200Y-91649523D01*
X133467200Y-91649523D02*
X133419580Y-91601904D01*
X133419580Y-91601904D02*
X133324342Y-91554285D01*
X133324342Y-91554285D02*
X133086247Y-91554285D01*
X133086247Y-91554285D02*
X132991009Y-91601904D01*
X132991009Y-91601904D02*
X132943390Y-91649523D01*
X132943390Y-91649523D02*
X132895771Y-91744761D01*
X132895771Y-91744761D02*
X132895771Y-91935237D01*
X132895771Y-91935237D02*
X132943390Y-92030475D01*
X132943390Y-92030475D02*
X132991009Y-92078094D01*
X132991009Y-92078094D02*
X133086247Y-92125713D01*
X135393333Y-71459580D02*
X135345714Y-71507200D01*
X135345714Y-71507200D02*
X135202857Y-71554819D01*
X135202857Y-71554819D02*
X135107619Y-71554819D01*
X135107619Y-71554819D02*
X134964762Y-71507200D01*
X134964762Y-71507200D02*
X134869524Y-71411961D01*
X134869524Y-71411961D02*
X134821905Y-71316723D01*
X134821905Y-71316723D02*
X134774286Y-71126247D01*
X134774286Y-71126247D02*
X134774286Y-70983390D01*
X134774286Y-70983390D02*
X134821905Y-70792914D01*
X134821905Y-70792914D02*
X134869524Y-70697676D01*
X134869524Y-70697676D02*
X134964762Y-70602438D01*
X134964762Y-70602438D02*
X135107619Y-70554819D01*
X135107619Y-70554819D02*
X135202857Y-70554819D01*
X135202857Y-70554819D02*
X135345714Y-70602438D01*
X135345714Y-70602438D02*
X135393333Y-70650057D01*
X136250476Y-70888152D02*
X136250476Y-71554819D01*
X136012381Y-70507200D02*
X135774286Y-71221485D01*
X135774286Y-71221485D02*
X136393333Y-71221485D01*
X109826666Y-80629819D02*
X109826666Y-81344104D01*
X109826666Y-81344104D02*
X109779047Y-81486961D01*
X109779047Y-81486961D02*
X109683809Y-81582200D01*
X109683809Y-81582200D02*
X109540952Y-81629819D01*
X109540952Y-81629819D02*
X109445714Y-81629819D01*
X110779047Y-80629819D02*
X110302857Y-80629819D01*
X110302857Y-80629819D02*
X110255238Y-81106009D01*
X110255238Y-81106009D02*
X110302857Y-81058390D01*
X110302857Y-81058390D02*
X110398095Y-81010771D01*
X110398095Y-81010771D02*
X110636190Y-81010771D01*
X110636190Y-81010771D02*
X110731428Y-81058390D01*
X110731428Y-81058390D02*
X110779047Y-81106009D01*
X110779047Y-81106009D02*
X110826666Y-81201247D01*
X110826666Y-81201247D02*
X110826666Y-81439342D01*
X110826666Y-81439342D02*
X110779047Y-81534580D01*
X110779047Y-81534580D02*
X110731428Y-81582200D01*
X110731428Y-81582200D02*
X110636190Y-81629819D01*
X110636190Y-81629819D02*
X110398095Y-81629819D01*
X110398095Y-81629819D02*
X110302857Y-81582200D01*
X110302857Y-81582200D02*
X110255238Y-81534580D01*
X140473333Y-91429580D02*
X140425714Y-91477200D01*
X140425714Y-91477200D02*
X140282857Y-91524819D01*
X140282857Y-91524819D02*
X140187619Y-91524819D01*
X140187619Y-91524819D02*
X140044762Y-91477200D01*
X140044762Y-91477200D02*
X139949524Y-91381961D01*
X139949524Y-91381961D02*
X139901905Y-91286723D01*
X139901905Y-91286723D02*
X139854286Y-91096247D01*
X139854286Y-91096247D02*
X139854286Y-90953390D01*
X139854286Y-90953390D02*
X139901905Y-90762914D01*
X139901905Y-90762914D02*
X139949524Y-90667676D01*
X139949524Y-90667676D02*
X140044762Y-90572438D01*
X140044762Y-90572438D02*
X140187619Y-90524819D01*
X140187619Y-90524819D02*
X140282857Y-90524819D01*
X140282857Y-90524819D02*
X140425714Y-90572438D01*
X140425714Y-90572438D02*
X140473333Y-90620057D01*
X141378095Y-90524819D02*
X140901905Y-90524819D01*
X140901905Y-90524819D02*
X140854286Y-91001009D01*
X140854286Y-91001009D02*
X140901905Y-90953390D01*
X140901905Y-90953390D02*
X140997143Y-90905771D01*
X140997143Y-90905771D02*
X141235238Y-90905771D01*
X141235238Y-90905771D02*
X141330476Y-90953390D01*
X141330476Y-90953390D02*
X141378095Y-91001009D01*
X141378095Y-91001009D02*
X141425714Y-91096247D01*
X141425714Y-91096247D02*
X141425714Y-91334342D01*
X141425714Y-91334342D02*
X141378095Y-91429580D01*
X141378095Y-91429580D02*
X141330476Y-91477200D01*
X141330476Y-91477200D02*
X141235238Y-91524819D01*
X141235238Y-91524819D02*
X140997143Y-91524819D01*
X140997143Y-91524819D02*
X140901905Y-91477200D01*
X140901905Y-91477200D02*
X140854286Y-91429580D01*
X143804819Y-78576666D02*
X143328628Y-78909999D01*
X143804819Y-79148094D02*
X142804819Y-79148094D01*
X142804819Y-79148094D02*
X142804819Y-78767142D01*
X142804819Y-78767142D02*
X142852438Y-78671904D01*
X142852438Y-78671904D02*
X142900057Y-78624285D01*
X142900057Y-78624285D02*
X142995295Y-78576666D01*
X142995295Y-78576666D02*
X143138152Y-78576666D01*
X143138152Y-78576666D02*
X143233390Y-78624285D01*
X143233390Y-78624285D02*
X143281009Y-78671904D01*
X143281009Y-78671904D02*
X143328628Y-78767142D01*
X143328628Y-78767142D02*
X143328628Y-79148094D01*
X143233390Y-78005237D02*
X143185771Y-78100475D01*
X143185771Y-78100475D02*
X143138152Y-78148094D01*
X143138152Y-78148094D02*
X143042914Y-78195713D01*
X143042914Y-78195713D02*
X142995295Y-78195713D01*
X142995295Y-78195713D02*
X142900057Y-78148094D01*
X142900057Y-78148094D02*
X142852438Y-78100475D01*
X142852438Y-78100475D02*
X142804819Y-78005237D01*
X142804819Y-78005237D02*
X142804819Y-77814761D01*
X142804819Y-77814761D02*
X142852438Y-77719523D01*
X142852438Y-77719523D02*
X142900057Y-77671904D01*
X142900057Y-77671904D02*
X142995295Y-77624285D01*
X142995295Y-77624285D02*
X143042914Y-77624285D01*
X143042914Y-77624285D02*
X143138152Y-77671904D01*
X143138152Y-77671904D02*
X143185771Y-77719523D01*
X143185771Y-77719523D02*
X143233390Y-77814761D01*
X143233390Y-77814761D02*
X143233390Y-78005237D01*
X143233390Y-78005237D02*
X143281009Y-78100475D01*
X143281009Y-78100475D02*
X143328628Y-78148094D01*
X143328628Y-78148094D02*
X143423866Y-78195713D01*
X143423866Y-78195713D02*
X143614342Y-78195713D01*
X143614342Y-78195713D02*
X143709580Y-78148094D01*
X143709580Y-78148094D02*
X143757200Y-78100475D01*
X143757200Y-78100475D02*
X143804819Y-78005237D01*
X143804819Y-78005237D02*
X143804819Y-77814761D01*
X143804819Y-77814761D02*
X143757200Y-77719523D01*
X143757200Y-77719523D02*
X143709580Y-77671904D01*
X143709580Y-77671904D02*
X143614342Y-77624285D01*
X143614342Y-77624285D02*
X143423866Y-77624285D01*
X143423866Y-77624285D02*
X143328628Y-77671904D01*
X143328628Y-77671904D02*
X143281009Y-77719523D01*
X143281009Y-77719523D02*
X143233390Y-77814761D01*
X140959580Y-82386666D02*
X141007200Y-82434285D01*
X141007200Y-82434285D02*
X141054819Y-82577142D01*
X141054819Y-82577142D02*
X141054819Y-82672380D01*
X141054819Y-82672380D02*
X141007200Y-82815237D01*
X141007200Y-82815237D02*
X140911961Y-82910475D01*
X140911961Y-82910475D02*
X140816723Y-82958094D01*
X140816723Y-82958094D02*
X140626247Y-83005713D01*
X140626247Y-83005713D02*
X140483390Y-83005713D01*
X140483390Y-83005713D02*
X140292914Y-82958094D01*
X140292914Y-82958094D02*
X140197676Y-82910475D01*
X140197676Y-82910475D02*
X140102438Y-82815237D01*
X140102438Y-82815237D02*
X140054819Y-82672380D01*
X140054819Y-82672380D02*
X140054819Y-82577142D01*
X140054819Y-82577142D02*
X140102438Y-82434285D01*
X140102438Y-82434285D02*
X140150057Y-82386666D01*
X141054819Y-81434285D02*
X141054819Y-82005713D01*
X141054819Y-81719999D02*
X140054819Y-81719999D01*
X140054819Y-81719999D02*
X140197676Y-81815237D01*
X140197676Y-81815237D02*
X140292914Y-81910475D01*
X140292914Y-81910475D02*
X140340533Y-82005713D01*
X132853333Y-67604819D02*
X132520000Y-67128628D01*
X132281905Y-67604819D02*
X132281905Y-66604819D01*
X132281905Y-66604819D02*
X132662857Y-66604819D01*
X132662857Y-66604819D02*
X132758095Y-66652438D01*
X132758095Y-66652438D02*
X132805714Y-66700057D01*
X132805714Y-66700057D02*
X132853333Y-66795295D01*
X132853333Y-66795295D02*
X132853333Y-66938152D01*
X132853333Y-66938152D02*
X132805714Y-67033390D01*
X132805714Y-67033390D02*
X132758095Y-67081009D01*
X132758095Y-67081009D02*
X132662857Y-67128628D01*
X132662857Y-67128628D02*
X132281905Y-67128628D01*
X133186667Y-66604819D02*
X133805714Y-66604819D01*
X133805714Y-66604819D02*
X133472381Y-66985771D01*
X133472381Y-66985771D02*
X133615238Y-66985771D01*
X133615238Y-66985771D02*
X133710476Y-67033390D01*
X133710476Y-67033390D02*
X133758095Y-67081009D01*
X133758095Y-67081009D02*
X133805714Y-67176247D01*
X133805714Y-67176247D02*
X133805714Y-67414342D01*
X133805714Y-67414342D02*
X133758095Y-67509580D01*
X133758095Y-67509580D02*
X133710476Y-67557200D01*
X133710476Y-67557200D02*
X133615238Y-67604819D01*
X133615238Y-67604819D02*
X133329524Y-67604819D01*
X133329524Y-67604819D02*
X133234286Y-67557200D01*
X133234286Y-67557200D02*
X133186667Y-67509580D01*
X155128095Y-75544819D02*
X155128095Y-76354342D01*
X155128095Y-76354342D02*
X155175714Y-76449580D01*
X155175714Y-76449580D02*
X155223333Y-76497200D01*
X155223333Y-76497200D02*
X155318571Y-76544819D01*
X155318571Y-76544819D02*
X155509047Y-76544819D01*
X155509047Y-76544819D02*
X155604285Y-76497200D01*
X155604285Y-76497200D02*
X155651904Y-76449580D01*
X155651904Y-76449580D02*
X155699523Y-76354342D01*
X155699523Y-76354342D02*
X155699523Y-75544819D01*
X156699523Y-76544819D02*
X156128095Y-76544819D01*
X156413809Y-76544819D02*
X156413809Y-75544819D01*
X156413809Y-75544819D02*
X156318571Y-75687676D01*
X156318571Y-75687676D02*
X156223333Y-75782914D01*
X156223333Y-75782914D02*
X156128095Y-75830533D01*
X148164761Y-73395057D02*
X148069523Y-73347438D01*
X148069523Y-73347438D02*
X147974285Y-73252200D01*
X147974285Y-73252200D02*
X147831428Y-73109342D01*
X147831428Y-73109342D02*
X147736190Y-73061723D01*
X147736190Y-73061723D02*
X147640952Y-73061723D01*
X147688571Y-73299819D02*
X147593333Y-73252200D01*
X147593333Y-73252200D02*
X147498095Y-73156961D01*
X147498095Y-73156961D02*
X147450476Y-72966485D01*
X147450476Y-72966485D02*
X147450476Y-72633152D01*
X147450476Y-72633152D02*
X147498095Y-72442676D01*
X147498095Y-72442676D02*
X147593333Y-72347438D01*
X147593333Y-72347438D02*
X147688571Y-72299819D01*
X147688571Y-72299819D02*
X147879047Y-72299819D01*
X147879047Y-72299819D02*
X147974285Y-72347438D01*
X147974285Y-72347438D02*
X148069523Y-72442676D01*
X148069523Y-72442676D02*
X148117142Y-72633152D01*
X148117142Y-72633152D02*
X148117142Y-72966485D01*
X148117142Y-72966485D02*
X148069523Y-73156961D01*
X148069523Y-73156961D02*
X147974285Y-73252200D01*
X147974285Y-73252200D02*
X147879047Y-73299819D01*
X147879047Y-73299819D02*
X147688571Y-73299819D01*
X149069523Y-73299819D02*
X148498095Y-73299819D01*
X148783809Y-73299819D02*
X148783809Y-72299819D01*
X148783809Y-72299819D02*
X148688571Y-72442676D01*
X148688571Y-72442676D02*
X148593333Y-72537914D01*
X148593333Y-72537914D02*
X148498095Y-72585533D01*
X146344819Y-59526666D02*
X145868628Y-59859999D01*
X146344819Y-60098094D02*
X145344819Y-60098094D01*
X145344819Y-60098094D02*
X145344819Y-59717142D01*
X145344819Y-59717142D02*
X145392438Y-59621904D01*
X145392438Y-59621904D02*
X145440057Y-59574285D01*
X145440057Y-59574285D02*
X145535295Y-59526666D01*
X145535295Y-59526666D02*
X145678152Y-59526666D01*
X145678152Y-59526666D02*
X145773390Y-59574285D01*
X145773390Y-59574285D02*
X145821009Y-59621904D01*
X145821009Y-59621904D02*
X145868628Y-59717142D01*
X145868628Y-59717142D02*
X145868628Y-60098094D01*
X145344819Y-59193332D02*
X145344819Y-58526666D01*
X145344819Y-58526666D02*
X146344819Y-58955237D01*
X156983333Y-93934819D02*
X156650000Y-93458628D01*
X156411905Y-93934819D02*
X156411905Y-92934819D01*
X156411905Y-92934819D02*
X156792857Y-92934819D01*
X156792857Y-92934819D02*
X156888095Y-92982438D01*
X156888095Y-92982438D02*
X156935714Y-93030057D01*
X156935714Y-93030057D02*
X156983333Y-93125295D01*
X156983333Y-93125295D02*
X156983333Y-93268152D01*
X156983333Y-93268152D02*
X156935714Y-93363390D01*
X156935714Y-93363390D02*
X156888095Y-93411009D01*
X156888095Y-93411009D02*
X156792857Y-93458628D01*
X156792857Y-93458628D02*
X156411905Y-93458628D01*
X157840476Y-92934819D02*
X157650000Y-92934819D01*
X157650000Y-92934819D02*
X157554762Y-92982438D01*
X157554762Y-92982438D02*
X157507143Y-93030057D01*
X157507143Y-93030057D02*
X157411905Y-93172914D01*
X157411905Y-93172914D02*
X157364286Y-93363390D01*
X157364286Y-93363390D02*
X157364286Y-93744342D01*
X157364286Y-93744342D02*
X157411905Y-93839580D01*
X157411905Y-93839580D02*
X157459524Y-93887200D01*
X157459524Y-93887200D02*
X157554762Y-93934819D01*
X157554762Y-93934819D02*
X157745238Y-93934819D01*
X157745238Y-93934819D02*
X157840476Y-93887200D01*
X157840476Y-93887200D02*
X157888095Y-93839580D01*
X157888095Y-93839580D02*
X157935714Y-93744342D01*
X157935714Y-93744342D02*
X157935714Y-93506247D01*
X157935714Y-93506247D02*
X157888095Y-93411009D01*
X157888095Y-93411009D02*
X157840476Y-93363390D01*
X157840476Y-93363390D02*
X157745238Y-93315771D01*
X157745238Y-93315771D02*
X157554762Y-93315771D01*
X157554762Y-93315771D02*
X157459524Y-93363390D01*
X157459524Y-93363390D02*
X157411905Y-93411009D01*
X157411905Y-93411009D02*
X157364286Y-93506247D01*
X147389580Y-90006666D02*
X147437200Y-90054285D01*
X147437200Y-90054285D02*
X147484819Y-90197142D01*
X147484819Y-90197142D02*
X147484819Y-90292380D01*
X147484819Y-90292380D02*
X147437200Y-90435237D01*
X147437200Y-90435237D02*
X147341961Y-90530475D01*
X147341961Y-90530475D02*
X147246723Y-90578094D01*
X147246723Y-90578094D02*
X147056247Y-90625713D01*
X147056247Y-90625713D02*
X146913390Y-90625713D01*
X146913390Y-90625713D02*
X146722914Y-90578094D01*
X146722914Y-90578094D02*
X146627676Y-90530475D01*
X146627676Y-90530475D02*
X146532438Y-90435237D01*
X146532438Y-90435237D02*
X146484819Y-90292380D01*
X146484819Y-90292380D02*
X146484819Y-90197142D01*
X146484819Y-90197142D02*
X146532438Y-90054285D01*
X146532438Y-90054285D02*
X146580057Y-90006666D01*
X146580057Y-89625713D02*
X146532438Y-89578094D01*
X146532438Y-89578094D02*
X146484819Y-89482856D01*
X146484819Y-89482856D02*
X146484819Y-89244761D01*
X146484819Y-89244761D02*
X146532438Y-89149523D01*
X146532438Y-89149523D02*
X146580057Y-89101904D01*
X146580057Y-89101904D02*
X146675295Y-89054285D01*
X146675295Y-89054285D02*
X146770533Y-89054285D01*
X146770533Y-89054285D02*
X146913390Y-89101904D01*
X146913390Y-89101904D02*
X147484819Y-89673332D01*
X147484819Y-89673332D02*
X147484819Y-89054285D01*
X136078095Y-51414819D02*
X136078095Y-52224342D01*
X136078095Y-52224342D02*
X136125714Y-52319580D01*
X136125714Y-52319580D02*
X136173333Y-52367200D01*
X136173333Y-52367200D02*
X136268571Y-52414819D01*
X136268571Y-52414819D02*
X136459047Y-52414819D01*
X136459047Y-52414819D02*
X136554285Y-52367200D01*
X136554285Y-52367200D02*
X136601904Y-52319580D01*
X136601904Y-52319580D02*
X136649523Y-52224342D01*
X136649523Y-52224342D02*
X136649523Y-51414819D01*
X137078095Y-51510057D02*
X137125714Y-51462438D01*
X137125714Y-51462438D02*
X137220952Y-51414819D01*
X137220952Y-51414819D02*
X137459047Y-51414819D01*
X137459047Y-51414819D02*
X137554285Y-51462438D01*
X137554285Y-51462438D02*
X137601904Y-51510057D01*
X137601904Y-51510057D02*
X137649523Y-51605295D01*
X137649523Y-51605295D02*
X137649523Y-51700533D01*
X137649523Y-51700533D02*
X137601904Y-51843390D01*
X137601904Y-51843390D02*
X137030476Y-52414819D01*
X137030476Y-52414819D02*
X137649523Y-52414819D01*
X161896666Y-52234819D02*
X161896666Y-52949104D01*
X161896666Y-52949104D02*
X161849047Y-53091961D01*
X161849047Y-53091961D02*
X161753809Y-53187200D01*
X161753809Y-53187200D02*
X161610952Y-53234819D01*
X161610952Y-53234819D02*
X161515714Y-53234819D01*
X162277619Y-52234819D02*
X162944285Y-52234819D01*
X162944285Y-52234819D02*
X162515714Y-53234819D01*
X126503333Y-96474819D02*
X126170000Y-95998628D01*
X125931905Y-96474819D02*
X125931905Y-95474819D01*
X125931905Y-95474819D02*
X126312857Y-95474819D01*
X126312857Y-95474819D02*
X126408095Y-95522438D01*
X126408095Y-95522438D02*
X126455714Y-95570057D01*
X126455714Y-95570057D02*
X126503333Y-95665295D01*
X126503333Y-95665295D02*
X126503333Y-95808152D01*
X126503333Y-95808152D02*
X126455714Y-95903390D01*
X126455714Y-95903390D02*
X126408095Y-95951009D01*
X126408095Y-95951009D02*
X126312857Y-95998628D01*
X126312857Y-95998628D02*
X125931905Y-95998628D01*
X127360476Y-95808152D02*
X127360476Y-96474819D01*
X127122381Y-95427200D02*
X126884286Y-96141485D01*
X126884286Y-96141485D02*
X127503333Y-96141485D01*
X118883333Y-84114819D02*
X118550000Y-83638628D01*
X118311905Y-84114819D02*
X118311905Y-83114819D01*
X118311905Y-83114819D02*
X118692857Y-83114819D01*
X118692857Y-83114819D02*
X118788095Y-83162438D01*
X118788095Y-83162438D02*
X118835714Y-83210057D01*
X118835714Y-83210057D02*
X118883333Y-83305295D01*
X118883333Y-83305295D02*
X118883333Y-83448152D01*
X118883333Y-83448152D02*
X118835714Y-83543390D01*
X118835714Y-83543390D02*
X118788095Y-83591009D01*
X118788095Y-83591009D02*
X118692857Y-83638628D01*
X118692857Y-83638628D02*
X118311905Y-83638628D01*
X119788095Y-83114819D02*
X119311905Y-83114819D01*
X119311905Y-83114819D02*
X119264286Y-83591009D01*
X119264286Y-83591009D02*
X119311905Y-83543390D01*
X119311905Y-83543390D02*
X119407143Y-83495771D01*
X119407143Y-83495771D02*
X119645238Y-83495771D01*
X119645238Y-83495771D02*
X119740476Y-83543390D01*
X119740476Y-83543390D02*
X119788095Y-83591009D01*
X119788095Y-83591009D02*
X119835714Y-83686247D01*
X119835714Y-83686247D02*
X119835714Y-83924342D01*
X119835714Y-83924342D02*
X119788095Y-84019580D01*
X119788095Y-84019580D02*
X119740476Y-84067200D01*
X119740476Y-84067200D02*
X119645238Y-84114819D01*
X119645238Y-84114819D02*
X119407143Y-84114819D01*
X119407143Y-84114819D02*
X119311905Y-84067200D01*
X119311905Y-84067200D02*
X119264286Y-84019580D01*
X118364523Y-58122438D02*
X118269285Y-58074819D01*
X118269285Y-58074819D02*
X118126428Y-58074819D01*
X118126428Y-58074819D02*
X117983571Y-58122438D01*
X117983571Y-58122438D02*
X117888333Y-58217676D01*
X117888333Y-58217676D02*
X117840714Y-58312914D01*
X117840714Y-58312914D02*
X117793095Y-58503390D01*
X117793095Y-58503390D02*
X117793095Y-58646247D01*
X117793095Y-58646247D02*
X117840714Y-58836723D01*
X117840714Y-58836723D02*
X117888333Y-58931961D01*
X117888333Y-58931961D02*
X117983571Y-59027200D01*
X117983571Y-59027200D02*
X118126428Y-59074819D01*
X118126428Y-59074819D02*
X118221666Y-59074819D01*
X118221666Y-59074819D02*
X118364523Y-59027200D01*
X118364523Y-59027200D02*
X118412142Y-58979580D01*
X118412142Y-58979580D02*
X118412142Y-58646247D01*
X118412142Y-58646247D02*
X118221666Y-58646247D01*
X118793095Y-59027200D02*
X118935952Y-59074819D01*
X118935952Y-59074819D02*
X119174047Y-59074819D01*
X119174047Y-59074819D02*
X119269285Y-59027200D01*
X119269285Y-59027200D02*
X119316904Y-58979580D01*
X119316904Y-58979580D02*
X119364523Y-58884342D01*
X119364523Y-58884342D02*
X119364523Y-58789104D01*
X119364523Y-58789104D02*
X119316904Y-58693866D01*
X119316904Y-58693866D02*
X119269285Y-58646247D01*
X119269285Y-58646247D02*
X119174047Y-58598628D01*
X119174047Y-58598628D02*
X118983571Y-58551009D01*
X118983571Y-58551009D02*
X118888333Y-58503390D01*
X118888333Y-58503390D02*
X118840714Y-58455771D01*
X118840714Y-58455771D02*
X118793095Y-58360533D01*
X118793095Y-58360533D02*
X118793095Y-58265295D01*
X118793095Y-58265295D02*
X118840714Y-58170057D01*
X118840714Y-58170057D02*
X118888333Y-58122438D01*
X118888333Y-58122438D02*
X118983571Y-58074819D01*
X118983571Y-58074819D02*
X119221666Y-58074819D01*
X119221666Y-58074819D02*
X119364523Y-58122438D01*
X120316904Y-59074819D02*
X119745476Y-59074819D01*
X120031190Y-59074819D02*
X120031190Y-58074819D01*
X120031190Y-58074819D02*
X119935952Y-58217676D01*
X119935952Y-58217676D02*
X119840714Y-58312914D01*
X119840714Y-58312914D02*
X119745476Y-58360533D01*
X140513333Y-91509580D02*
X140465714Y-91557200D01*
X140465714Y-91557200D02*
X140322857Y-91604819D01*
X140322857Y-91604819D02*
X140227619Y-91604819D01*
X140227619Y-91604819D02*
X140084762Y-91557200D01*
X140084762Y-91557200D02*
X139989524Y-91461961D01*
X139989524Y-91461961D02*
X139941905Y-91366723D01*
X139941905Y-91366723D02*
X139894286Y-91176247D01*
X139894286Y-91176247D02*
X139894286Y-91033390D01*
X139894286Y-91033390D02*
X139941905Y-90842914D01*
X139941905Y-90842914D02*
X139989524Y-90747676D01*
X139989524Y-90747676D02*
X140084762Y-90652438D01*
X140084762Y-90652438D02*
X140227619Y-90604819D01*
X140227619Y-90604819D02*
X140322857Y-90604819D01*
X140322857Y-90604819D02*
X140465714Y-90652438D01*
X140465714Y-90652438D02*
X140513333Y-90700057D01*
X140846667Y-90604819D02*
X141465714Y-90604819D01*
X141465714Y-90604819D02*
X141132381Y-90985771D01*
X141132381Y-90985771D02*
X141275238Y-90985771D01*
X141275238Y-90985771D02*
X141370476Y-91033390D01*
X141370476Y-91033390D02*
X141418095Y-91081009D01*
X141418095Y-91081009D02*
X141465714Y-91176247D01*
X141465714Y-91176247D02*
X141465714Y-91414342D01*
X141465714Y-91414342D02*
X141418095Y-91509580D01*
X141418095Y-91509580D02*
X141370476Y-91557200D01*
X141370476Y-91557200D02*
X141275238Y-91604819D01*
X141275238Y-91604819D02*
X140989524Y-91604819D01*
X140989524Y-91604819D02*
X140894286Y-91557200D01*
X140894286Y-91557200D02*
X140846667Y-91509580D01*
X134123333Y-85384819D02*
X133790000Y-84908628D01*
X133551905Y-85384819D02*
X133551905Y-84384819D01*
X133551905Y-84384819D02*
X133932857Y-84384819D01*
X133932857Y-84384819D02*
X134028095Y-84432438D01*
X134028095Y-84432438D02*
X134075714Y-84480057D01*
X134075714Y-84480057D02*
X134123333Y-84575295D01*
X134123333Y-84575295D02*
X134123333Y-84718152D01*
X134123333Y-84718152D02*
X134075714Y-84813390D01*
X134075714Y-84813390D02*
X134028095Y-84861009D01*
X134028095Y-84861009D02*
X133932857Y-84908628D01*
X133932857Y-84908628D02*
X133551905Y-84908628D01*
X135075714Y-85384819D02*
X134504286Y-85384819D01*
X134790000Y-85384819D02*
X134790000Y-84384819D01*
X134790000Y-84384819D02*
X134694762Y-84527676D01*
X134694762Y-84527676D02*
X134599524Y-84622914D01*
X134599524Y-84622914D02*
X134504286Y-84670533D01*
D11*
%TO.C,C6*%
X134190000Y-94810000D02*
X134190000Y-89870000D01*
X134190000Y-94810000D02*
X134505000Y-94810000D01*
X136615000Y-89870000D02*
X136930000Y-89870000D01*
X134190000Y-89870000D02*
X134505000Y-89870000D01*
X136930000Y-94810000D02*
X136930000Y-89870000D01*
X136615000Y-94810000D02*
X136930000Y-94810000D01*
%TO.C,J1*%
X129210000Y-98790000D02*
X147050000Y-98790000D01*
X129210000Y-98790000D02*
X129210000Y-96130000D01*
X147050000Y-98790000D02*
X147050000Y-96130000D01*
X126610000Y-97460000D02*
X126610000Y-96130000D01*
X126610000Y-96130000D02*
X127940000Y-96130000D01*
X129210000Y-96130000D02*
X147050000Y-96130000D01*
%TO.C,J3*%
X152070000Y-98790000D02*
X164830000Y-98790000D01*
X152070000Y-98790000D02*
X152070000Y-96130000D01*
X164830000Y-98790000D02*
X164830000Y-96130000D01*
X149470000Y-97460000D02*
X149470000Y-96130000D01*
X149470000Y-96130000D02*
X150800000Y-96130000D01*
X152070000Y-96130000D02*
X164830000Y-96130000D01*
%TO.C,J2*%
X120066000Y-50530000D02*
X142986000Y-50530000D01*
X120066000Y-50530000D02*
X120066000Y-47870000D01*
X142986000Y-50530000D02*
X142986000Y-47870000D01*
X117466000Y-49200000D02*
X117466000Y-47870000D01*
X117466000Y-47870000D02*
X118796000Y-47870000D01*
X120066000Y-47870000D02*
X142986000Y-47870000D01*
%TO.C,J4*%
X146990000Y-50530000D02*
X164830000Y-50530000D01*
X146990000Y-50530000D02*
X146990000Y-47870000D01*
X164830000Y-50530000D02*
X164830000Y-47870000D01*
X144390000Y-49200000D02*
X144390000Y-47870000D01*
X144390000Y-47870000D02*
X145720000Y-47870000D01*
X146990000Y-47870000D02*
X164830000Y-47870000D01*
%TO.C,C4*%
X131940000Y-72230000D02*
X131940000Y-76970000D01*
X131940000Y-72230000D02*
X139180000Y-72230000D01*
X131940000Y-76970000D02*
X139180000Y-76970000D01*
X139180000Y-72230000D02*
X139180000Y-76970000D01*
%TO.C,J5*%
X108830000Y-82175000D02*
X110160000Y-82175000D01*
X108830000Y-83505000D02*
X108830000Y-82175000D01*
X108830000Y-84775000D02*
X108830000Y-89915000D01*
X108830000Y-84775000D02*
X111490000Y-84775000D01*
X108830000Y-89915000D02*
X111490000Y-89915000D01*
X111490000Y-84775000D02*
X111490000Y-89915000D01*
%TO.C,C5*%
X143110000Y-89940000D02*
X143110000Y-89625000D01*
X143110000Y-89940000D02*
X138170000Y-89940000D01*
X143110000Y-87515000D02*
X143110000Y-87200000D01*
X143110000Y-87200000D02*
X138170000Y-87200000D01*
X138170000Y-89940000D02*
X138170000Y-89625000D01*
X138170000Y-87515000D02*
X138170000Y-87200000D01*
%TO.C,R8*%
X145720000Y-82450000D02*
X145720000Y-81680000D01*
X144350000Y-81680000D02*
X147090000Y-81680000D01*
X147090000Y-81680000D02*
X147090000Y-75140000D01*
X144350000Y-75140000D02*
X144350000Y-81680000D01*
X147090000Y-75140000D02*
X144350000Y-75140000D01*
X145720000Y-74370000D02*
X145720000Y-75140000D01*
%TO.C,C1*%
X139470000Y-79750000D02*
X139155000Y-79750000D01*
X139470000Y-79750000D02*
X139470000Y-84690000D01*
X137045000Y-79750000D02*
X136730000Y-79750000D01*
X136730000Y-79750000D02*
X136730000Y-84690000D01*
X139470000Y-84690000D02*
X139155000Y-84690000D01*
X137045000Y-84690000D02*
X136730000Y-84690000D01*
%TO.C,R3*%
X128980000Y-69520000D02*
X129750000Y-69520000D01*
X129750000Y-68150000D02*
X129750000Y-70890000D01*
X129750000Y-70890000D02*
X136290000Y-70890000D01*
X136290000Y-68150000D02*
X129750000Y-68150000D01*
X136290000Y-70890000D02*
X136290000Y-68150000D01*
X137060000Y-69520000D02*
X136290000Y-69520000D01*
%TO.C,U1*%
X153240000Y-77090000D02*
X153240000Y-87370000D01*
X153240000Y-87370000D02*
X158540000Y-87370000D01*
X154890000Y-77090000D02*
X153240000Y-77090000D01*
X158540000Y-77090000D02*
X156890000Y-77090000D01*
X158540000Y-87370000D02*
X158540000Y-77090000D01*
X154890000Y-77090000D02*
G75*
G03*
X156890000Y-77090000I1000000J0D01*
G01*
%TO.C,Q1*%
X153380000Y-71845000D02*
X153380000Y-67204000D01*
X153380000Y-71845000D02*
X143140000Y-71845000D01*
X153380000Y-70335000D02*
X143140000Y-70335000D01*
X153380000Y-67204000D02*
X143140000Y-67204000D01*
X150110000Y-71845000D02*
X150110000Y-70335000D01*
X146409000Y-71845000D02*
X146409000Y-70335000D01*
X143140000Y-71845000D02*
X143140000Y-67204000D01*
%TO.C,R7*%
X148260000Y-63400000D02*
X148260000Y-62630000D01*
X146890000Y-62630000D02*
X149630000Y-62630000D01*
X149630000Y-62630000D02*
X149630000Y-56090000D01*
X146890000Y-56090000D02*
X146890000Y-62630000D01*
X149630000Y-56090000D02*
X146890000Y-56090000D01*
X148260000Y-55320000D02*
X148260000Y-56090000D01*
%TO.C,R6*%
X153110000Y-91110000D02*
X153880000Y-91110000D01*
X153880000Y-89740000D02*
X153880000Y-92480000D01*
X153880000Y-92480000D02*
X160420000Y-92480000D01*
X160420000Y-89740000D02*
X153880000Y-89740000D01*
X160420000Y-92480000D02*
X160420000Y-89740000D01*
X161190000Y-91110000D02*
X160420000Y-91110000D01*
%TO.C,C2*%
X148160000Y-92310000D02*
X148475000Y-92310000D01*
X148160000Y-92310000D02*
X148160000Y-87370000D01*
X150585000Y-92310000D02*
X150900000Y-92310000D01*
X150900000Y-92310000D02*
X150900000Y-87370000D01*
X148160000Y-87370000D02*
X148475000Y-87370000D01*
X150585000Y-87370000D02*
X150900000Y-87370000D01*
%TO.C,U2*%
X134190000Y-52960000D02*
X134190000Y-63240000D01*
X134190000Y-63240000D02*
X139490000Y-63240000D01*
X135840000Y-52960000D02*
X134190000Y-52960000D01*
X139490000Y-52960000D02*
X137840000Y-52960000D01*
X139490000Y-63240000D02*
X139490000Y-52960000D01*
X135840000Y-52960000D02*
G75*
G03*
X137840000Y-52960000I1000000J0D01*
G01*
%TO.C,J7*%
X160900000Y-56820000D02*
X160900000Y-74660000D01*
X160900000Y-56820000D02*
X163560000Y-56820000D01*
X160900000Y-74660000D02*
X163560000Y-74660000D01*
X162230000Y-54220000D02*
X163560000Y-54220000D01*
X163560000Y-54220000D02*
X163560000Y-55550000D01*
X163560000Y-56820000D02*
X163560000Y-74660000D01*
%TO.C,R4*%
X130710000Y-93650000D02*
X129940000Y-93650000D01*
X129940000Y-95020000D02*
X129940000Y-92280000D01*
X129940000Y-92280000D02*
X123400000Y-92280000D01*
X123400000Y-95020000D02*
X129940000Y-95020000D01*
X123400000Y-92280000D02*
X123400000Y-95020000D01*
X122630000Y-93650000D02*
X123400000Y-93650000D01*
%TO.C,R5*%
X115010000Y-86030000D02*
X115780000Y-86030000D01*
X115780000Y-84660000D02*
X115780000Y-87400000D01*
X115780000Y-87400000D02*
X122320000Y-87400000D01*
X122320000Y-84660000D02*
X115780000Y-84660000D01*
X122320000Y-87400000D02*
X122320000Y-84660000D01*
X123090000Y-86030000D02*
X122320000Y-86030000D01*
%TO.C,GS1*%
X115280327Y-61442629D02*
G75*
G03*
X116057916Y-60665099I3774673J-2997371D01*
G01*
X116057916Y-60665098D02*
X115166961Y-59774144D01*
X115166961Y-59774144D02*
X114389144Y-60551961D01*
X114389144Y-60551961D02*
X115280098Y-61442916D01*
%TO.C,C3*%
X138210000Y-92280000D02*
X138210000Y-92595000D01*
X138210000Y-92280000D02*
X143150000Y-92280000D01*
X138210000Y-94705000D02*
X138210000Y-95020000D01*
X138210000Y-95020000D02*
X143150000Y-95020000D01*
X143150000Y-92280000D02*
X143150000Y-92595000D01*
X143150000Y-94705000D02*
X143150000Y-95020000D01*
%TO.C,R1*%
X131750000Y-80720000D02*
X131750000Y-81490000D01*
X133120000Y-81490000D02*
X130380000Y-81490000D01*
X130380000Y-81490000D02*
X130380000Y-88030000D01*
X133120000Y-88030000D02*
X133120000Y-81490000D01*
X130380000Y-88030000D02*
X133120000Y-88030000D01*
X131750000Y-88800000D02*
X131750000Y-88030000D01*
%TD*%
M02*
